<?xml version="1.0" encoding="UTF-8"?>
<svg xmlns="http://www.w3.org/2000/svg" width="567" height="767" viewBox="0 0 567 767">
  <image href="map.png" x="0" y="0" width="567" height="767" />
  <circle cx="367.4" cy="233.2" r="4.5" fill="#c40000" stroke="#fff" stroke-width="1.5" />
<circle cx="394.6" cy="271.5" r="4.5" fill="#c40000" stroke="#fff" stroke-width="1.5" />
<circle cx="83.9" cy="572.2" r="4.5" fill="#c40000" stroke="#fff" stroke-width="1.5" />
<circle cx="134.9" cy="533.8" r="4.5" fill="#c40000" stroke="#fff" stroke-width="1.5" />
<circle cx="181.4" cy="629.7" r="4.5" fill="#c40000" stroke="#fff" stroke-width="1.5" />
<circle cx="230.8" cy="691.8" r="4.5" fill="#c40000" stroke="#fff" stroke-width="1.5" />
<circle cx="225.1" cy="464.0" r="4.5" fill="#c40000" stroke="#fff" stroke-width="1.5" />
<circle cx="289.7" cy="188.7" r="4.5" fill="#c40000" stroke="#fff" stroke-width="1.5" />
<circle cx="388.4" cy="301.4" r="4.5" fill="#c40000" stroke="#fff" stroke-width="1.5" />
<circle cx="361.2" cy="207.9" r="4.5" fill="#c40000" stroke="#fff" stroke-width="1.5" />
<circle cx="286.9" cy="369.7" r="4.5" fill="#c40000" stroke="#fff" stroke-width="1.5" />
<circle cx="55.6" cy="616.7" r="4.5" fill="#c40000" stroke="#fff" stroke-width="1.5" />
<circle cx="98.7" cy="592.1" r="4.5" fill="#c40000" stroke="#fff" stroke-width="1.5" />
<circle cx="146.9" cy="528.5" r="4.5" fill="#c40000" stroke="#fff" stroke-width="1.5" />
<circle cx="117.9" cy="545.3" r="4.5" fill="#c40000" stroke="#fff" stroke-width="1.5" />
<circle cx="202.4" cy="491.6" r="4.5" fill="#c40000" stroke="#fff" stroke-width="1.5" />
<circle cx="259.7" cy="464.8" r="4.5" fill="#c40000" stroke="#fff" stroke-width="1.5" />
<circle cx="320.4" cy="264.6" r="4.5" fill="#c40000" stroke="#fff" stroke-width="1.5" />
<circle cx="351.0" cy="243.9" r="4.5" fill="#c40000" stroke="#fff" stroke-width="1.5" />
<circle cx="79.9" cy="523.9" r="4.5" fill="#c40000" stroke="#fff" stroke-width="1.5" />
<circle cx="44.2" cy="642.7" r="4.5" fill="#c40000" stroke="#fff" stroke-width="1.5" />
<circle cx="59.0" cy="542.3" r="4.5" fill="#c40000" stroke="#fff" stroke-width="1.5" />
<circle cx="169.0" cy="629.7" r="4.5" fill="#c40000" stroke="#fff" stroke-width="1.5" />
<circle cx="71.4" cy="563.0" r="4.5" fill="#c40000" stroke="#fff" stroke-width="1.5" />
<circle cx="100.9" cy="470.2" r="4.5" fill="#c40000" stroke="#fff" stroke-width="1.5" />
<circle cx="291.4" cy="587.5" r="4.5" fill="#c40000" stroke="#fff" stroke-width="1.5" />
<circle cx="140.6" cy="599.8" r="4.5" fill="#c40000" stroke="#fff" stroke-width="1.5" />
<circle cx="248.3" cy="414.9" r="4.5" fill="#c40000" stroke="#fff" stroke-width="1.5" />
<circle cx="314.1" cy="338.2" r="4.5" fill="#c40000" stroke="#fff" stroke-width="1.5" />
<circle cx="331.1" cy="381.2" r="4.5" fill="#c40000" stroke="#fff" stroke-width="1.5" />
<circle cx="403.7" cy="696.4" r="4.5" fill="#c40000" stroke="#fff" stroke-width="1.5" />
<circle cx="390.7" cy="256.2" r="4.5" fill="#c40000" stroke="#fff" stroke-width="1.5" />
<circle cx="276.1" cy="141.9" r="4.5" fill="#c40000" stroke="#fff" stroke-width="1.5" />
<circle cx="326.6" cy="258.5" r="4.5" fill="#c40000" stroke="#fff" stroke-width="1.5" />
<circle cx="262.5" cy="446.4" r="4.5" fill="#c40000" stroke="#fff" stroke-width="1.5" />
<circle cx="388.4" cy="301.4" r="4.5" fill="#ff2d2d" stroke="#fff" stroke-width="1.5" />
<circle cx="186.5" cy="629.7" r="4.5" fill="#ff2d2d" stroke="#fff" stroke-width="1.5" />
<circle cx="186.0" cy="632.8" r="4.5" fill="#ff2d2d" stroke="#fff" stroke-width="1.5" />
<circle cx="185.4" cy="636.6" r="4.5" fill="#ff2d2d" stroke="#fff" stroke-width="1.5" />
<circle cx="184.3" cy="638.9" r="4.5" fill="#ff2d2d" stroke="#fff" stroke-width="1.5" />
<circle cx="182.0" cy="642.0" r="4.5" fill="#ff2d2d" stroke="#fff" stroke-width="1.5" />
<circle cx="180.3" cy="643.5" r="4.5" fill="#ff2d2d" stroke="#fff" stroke-width="1.5" />
<circle cx="177.5" cy="644.3" r="4.5" fill="#ff2d2d" stroke="#fff" stroke-width="1.5" />
<circle cx="175.2" cy="645.0" r="4.5" fill="#ff2d2d" stroke="#fff" stroke-width="1.5" />
<circle cx="172.9" cy="644.3" r="4.5" fill="#ff2d2d" stroke="#fff" stroke-width="1.5" />
<circle cx="170.1" cy="643.5" r="4.5" fill="#ff2d2d" stroke="#fff" stroke-width="1.5" />
<circle cx="168.4" cy="642.0" r="4.5" fill="#ff2d2d" stroke="#fff" stroke-width="1.5" />
<circle cx="166.1" cy="638.9" r="4.5" fill="#ff2d2d" stroke="#fff" stroke-width="1.5" />
<circle cx="165.0" cy="636.6" r="4.5" fill="#ff2d2d" stroke="#fff" stroke-width="1.5" />
<circle cx="164.4" cy="632.8" r="4.5" fill="#ff2d2d" stroke="#fff" stroke-width="1.5" />
<circle cx="163.9" cy="629.7" r="4.5" fill="#ff2d2d" stroke="#fff" stroke-width="1.5" />
<circle cx="164.4" cy="626.6" r="4.5" fill="#ff2d2d" stroke="#fff" stroke-width="1.5" />
<circle cx="165.0" cy="622.8" r="4.5" fill="#ff2d2d" stroke="#fff" stroke-width="1.5" />
<circle cx="166.1" cy="620.5" r="4.5" fill="#ff2d2d" stroke="#fff" stroke-width="1.5" />
<circle cx="168.4" cy="617.4" r="4.5" fill="#ff2d2d" stroke="#fff" stroke-width="1.5" />
<circle cx="170.1" cy="615.9" r="4.5" fill="#ff2d2d" stroke="#fff" stroke-width="1.5" />
<circle cx="172.9" cy="615.1" r="4.5" fill="#ff2d2d" stroke="#fff" stroke-width="1.5" />
<circle cx="175.2" cy="614.4" r="4.5" fill="#ff2d2d" stroke="#fff" stroke-width="1.5" />
<circle cx="177.5" cy="615.1" r="4.5" fill="#ff2d2d" stroke="#fff" stroke-width="1.5" />
<circle cx="180.3" cy="615.9" r="4.5" fill="#ff2d2d" stroke="#fff" stroke-width="1.5" />
<circle cx="182.0" cy="617.4" r="4.5" fill="#ff2d2d" stroke="#fff" stroke-width="1.5" />
<circle cx="184.3" cy="620.5" r="4.5" fill="#ff2d2d" stroke="#fff" stroke-width="1.5" />
<circle cx="185.4" cy="622.8" r="4.5" fill="#ff2d2d" stroke="#fff" stroke-width="1.5" />
<circle cx="186.0" cy="626.6" r="4.5" fill="#ff2d2d" stroke="#fff" stroke-width="1.5" />
<circle cx="295.4" cy="369.7" r="4.5" fill="#ff2d2d" stroke="#fff" stroke-width="1.5" />
<circle cx="293.1" cy="378.1" r="4.5" fill="#ff2d2d" stroke="#fff" stroke-width="1.5" />
<circle cx="286.9" cy="381.2" r="4.5" fill="#ff2d2d" stroke="#fff" stroke-width="1.5" />
<circle cx="280.7" cy="378.1" r="4.5" fill="#ff2d2d" stroke="#fff" stroke-width="1.5" />
<circle cx="278.4" cy="369.7" r="4.5" fill="#ff2d2d" stroke="#fff" stroke-width="1.5" />
<circle cx="280.7" cy="361.3" r="4.5" fill="#ff2d2d" stroke="#fff" stroke-width="1.5" />
<circle cx="286.9" cy="358.2" r="4.5" fill="#ff2d2d" stroke="#fff" stroke-width="1.5" />
<circle cx="293.1" cy="361.3" r="4.5" fill="#ff2d2d" stroke="#fff" stroke-width="1.5" />
<circle cx="90.2" cy="572.2" r="4.5" fill="#ff2d2d" stroke="#fff" stroke-width="1.5" />
<circle cx="77.7" cy="572.2" r="4.5" fill="#ff2d2d" stroke="#fff" stroke-width="1.5" />
<circle cx="296.0" cy="188.7" r="4.5" fill="#ff2d2d" stroke="#fff" stroke-width="1.5" />
<circle cx="286.9" cy="196.4" r="4.5" fill="#ff2d2d" stroke="#fff" stroke-width="1.5" />
<circle cx="286.9" cy="181.0" r="4.5" fill="#ff2d2d" stroke="#fff" stroke-width="1.5" />
<circle cx="237.0" cy="691.8" r="4.5" fill="#ff2d2d" stroke="#fff" stroke-width="1.5" />
<circle cx="224.5" cy="691.8" r="4.5" fill="#ff2d2d" stroke="#fff" stroke-width="1.5" />
<circle cx="163.9" cy="576.8" r="4.5" fill="#ff2d2d" stroke="#fff" stroke-width="1.5" />
<circle cx="151.4" cy="576.8" r="4.5" fill="#ff2d2d" stroke="#fff" stroke-width="1.5" />
<circle cx="233.6" cy="464.0" r="4.5" fill="#ff2d2d" stroke="#fff" stroke-width="1.5" />
<circle cx="229.6" cy="474.0" r="4.5" fill="#ff2d2d" stroke="#fff" stroke-width="1.5" />
<circle cx="221.1" cy="474.0" r="4.5" fill="#ff2d2d" stroke="#fff" stroke-width="1.5" />
<circle cx="216.6" cy="464.0" r="4.5" fill="#ff2d2d" stroke="#fff" stroke-width="1.5" />
<circle cx="221.1" cy="454.1" r="4.5" fill="#ff2d2d" stroke="#fff" stroke-width="1.5" />
<circle cx="229.6" cy="454.1" r="4.5" fill="#ff2d2d" stroke="#fff" stroke-width="1.5" />
<circle cx="141.2" cy="533.8" r="4.5" fill="#ff2d2d" stroke="#fff" stroke-width="1.5" />
<circle cx="128.7" cy="533.8" r="4.5" fill="#ff2d2d" stroke="#fff" stroke-width="1.5" />
</svg>